<svg xmlns="http://www.w3.org/2000/svg" xmlns:xlink="http://www.w3.org/1999/xlink" version="1.1" width="1000" height="1000" viewBox="0 0 1000 1000" xml:space="preserve">
<desc>Created with Fabric.js 3.5.0</desc>
<defs>
</defs>
<rect x="0" y="0" width="100%" height="100%" fill="#ffffff"/>
<g transform="matrix(4.9378 0 0 3.3908 443.866 301.457)" id="542617">
<path style="stroke: none; stroke-width: 1; stroke-dasharray: none; stroke-linecap: butt; stroke-dashoffset: 0; stroke-linejoin: miter; stroke-miterlimit: 4; is-custom-font: none; font-file-url: none; fill: rgb(41,171,226); fill-rule: nonzero; opacity: 1;" vector-effect="non-scaling-stroke" transform=" translate(-51.8498, -75.5008)" d="M 66.18 151 a 2.89 2.89 0 0 1 -0.91 -0.15 a 3 3 0 0 1 -1.95 -3.76 C 80.07 94.48 90 59.63 94.61 37.4 c 5.64 -27.31 2 -30.94 0.79 -31.4 C 95.22 6 90 5.51 70.77 34.76 C 59.9 51.29 49.25 70.14 44.7 78.19 c -1 1.68 -1.65 2.9 -2 3.56 A 3.09 3.09 0 0 1 37 79.39 C 41.77 62 44.54 46.19 43.8 41.31 C 37.11 46.07 19.72 70.19 5.67 91.69 A 3.09 3.09 0 0 1 0.14 89.08 L 15.43 39.64 a 3 3 0 0 1 5.74 1.77 L 11.73 71.93 C 22.15 56.85 36 38.18 42.24 35.28 a 4.77 4.77 0 0 1 5.29 0.51 c 1.22 1 4.43 3.76 0.11 25.2 C 80.85 4.07 91.53 -1.83 97.49 0.38 c 7.19 2.67 8.05 13.74 3 38.23 C 95.84 61.05 85.85 96.1 69 148.9 A 3 3 0 0 1 66.18 151 Z M 5.87 90.85 h 0 Z" stroke-linecap="round"/>
</g>
</svg>