<svg xmlns="http://www.w3.org/2000/svg" xmlns:xlink="http://www.w3.org/1999/xlink" width="202.0852" height="70.9897" viewBox="0 0 202.0852 70.9897"><defs><style>.cls-1{fill:#fff;}.cls-2{fill:url(#linear-gradient);}.cls-3{fill:url(#linear-gradient-2);}.cls-4{fill:#f15b27;}</style><linearGradient id="linear-gradient" x1="89.2718" y1="14.4179" x2="89.2718" y2="51.9317" gradientUnits="userSpaceOnUse"><stop offset="0" stop-color="#f15b27"/><stop offset="0.5234" stop-color="#f15c29"/><stop offset="0.7119" stop-color="#f15e30"/><stop offset="0.8463" stop-color="#f1623b"/><stop offset="0.9541" stop-color="#f2684c"/><stop offset="1" stop-color="#f26c56"/></linearGradient><linearGradient id="linear-gradient-2" x1="87.3842" y1="48.1893" x2="87.3842" y2="61.6731" gradientUnits="userSpaceOnUse"><stop offset="0" stop-color="#f26c56"/><stop offset="0.1268" stop-color="#f2715b"/><stop offset="0.2851" stop-color="#f47e6b"/><stop offset="0.4602" stop-color="#f69484"/><stop offset="0.6476" stop-color="#f8b3a8"/><stop offset="0.8423" stop-color="#fcdad5"/><stop offset="1" stop-color="#fff"/></linearGradient></defs><title>logo_art_caffe_W</title><g id="Art_caffe" data-name="Art caffe"><path class="cls-1" d="M36.2536,35.1781q-.4161,1.5515-.8711,4.2034-.4569,2.6533-.83,5.6317-.3732,2.9805-.6222,5.795t-.2489,4.7748v.8163a4.4837,4.4837,0,0,0,.083.8977l.0829,2.6119q0,2.3663-1.6591,2.3669-1.2446,0-1.95-1.6732a12.728,12.728,0,0,1-.7052-4.7747,58.5112,58.5112,0,0,1,.4563-7.1417q.4549-3.7131,1.4518-8.366.4141-2.1216.5393-2.8159a12.2537,12.2537,0,0,1,.29-1.2651q-1.991.4092-5.0606,1.1834-3.07.7768-6.3879,1.6325t-6.4294,1.6731q-3.111.8169-5.185,1.4692-.4161,1.1439-1.12,2.9383-.7057,1.7963-2.1155,5.387-.5814,1.5513-.954,2.4485-.3734.8989-.5807,1.3876a7.28,7.28,0,0,1-.3733.7752,6.19,6.19,0,0,1-.4148.6122A2.2811,2.2811,0,0,1,1.6592,56.889a1.6058,1.6058,0,0,1-1.1614-.49A1.6473,1.6473,0,0,1,0,55.1749a4.3487,4.3487,0,0,1,.0415-.6121,4.9624,4.9624,0,0,1,.3318-.9794q.2917-.6925.8711-2,.5814-1.3045,1.6592-3.7545Q3.8155,45.79,4.19,44.8909q.3733-.8973.7881-1.7957a2.0554,2.0554,0,0,1-.7466.1632H3.4843q-2.4051,0-2.4058-1.9588a1.4224,1.4224,0,0,1,.7051-1.2651,7.6662,7.6662,0,0,1,2.53-.7754q.9954-.1626,1.4518-.204a5.7083,5.7083,0,0,0,1.037-.2042l3.36-7.3457q1.12-2.4486,1.2859-2.6935,3.3171-6.5289,6.5953-11.8348a94.023,94.023,0,0,1,6.2636-9.06,36.6272,36.6272,0,0,1,5.6-5.8358Q32.52,0,34.3455,0q2.1563,0,3.4429,3.1016a22.4548,22.4548,0,0,1,1.2859,8.4068q0,1.714-.1621,4.04t-.4459,4.9788q-.2839,2.6533-.6481,5.5094-.3655,2.8579-.85,5.55l.4874-.1633.9748-.3265a3.284,3.284,0,0,1,.8931-.0816,1.6229,1.6229,0,0,1,1.12.4081,1.3618,1.3618,0,0,1,.4563,1.0611,2.0732,2.0732,0,0,1-.1659.857,1.56,1.56,0,0,1-.6222.6529,5.3938,5.3938,0,0,1-1.2445.5305q-.7893.2449-2.1154.5714Zm-3.4014-2.6118q.4978-2.4486,1.0124-5.591t.9048-6.3255q.389-3.1831.6041-6.1623T35.59,9.3046a9.2545,9.2545,0,0,0-.5625-3.632q-.562-1.2645-1.5115-1.2651-1.328,0-3.6917,2.3669a53.42,53.42,0,0,0-5.5168,6.8561q-1.91,2.6934-3.6088,5.3869-1.7013,2.6934-3.3184,5.6318t-3.277,6.2439q-1.66,3.3056-3.4013,7.2233,1.7421-.4074,4.4383-1.0611T20.906,35.627q3.0682-.7748,6.222-1.5508Q30.28,33.3015,32.8522,32.5663Z"/><path class="cls-1" d="M52.5128,38.6061Q51.02,43.0959,49.9,46.36t-2.074,5.795q-.9547,2.5308-1.8666,4.6115-.9138,2.0814-2.074,4.2035a31.7371,31.7371,0,0,1-2.6133,4.53,2.375,2.375,0,0,1-1.7836,1.1019,1.4247,1.4247,0,0,1-1.12-.53,1.7776,1.7776,0,0,1-.4563-1.1836,1.69,1.69,0,0,1,.2489-.8977,21.8986,21.8986,0,0,1,1.4933-1.8773,17.1218,17.1218,0,0,0,2.7377-4.3259,77.9268,77.9268,0,0,0,3.111-7.3049q1.5341-4.1207,2.7791-8.4885a71.9419,71.9419,0,0,0,1.8252-7.8762,12.6373,12.6373,0,0,1,.29-1.6324,2.934,2.934,0,0,1,.6222-.9795,2.383,2.383,0,0,1,1.8252-.9794,1.233,1.233,0,0,1,1.2444.8162,9.91,9.91,0,0,1,.4147,2.9382,4.5586,4.5586,0,0,1,2.4889-.9794,1.7467,1.7467,0,0,1,1.3688.6122,2.3209,2.3209,0,0,1,.5392,1.5915,6.164,6.164,0,0,1-.2073,1.5916q-.2082.7767-.8711,2.4894-1.1628,3.1029-1.7007,5.1012a13.5737,13.5737,0,0,0-.5392,3.4689q0,2.1234,1.3273,2.1222a2.8232,2.8232,0,0,0,.9955-.4082,2.3584,2.3584,0,0,1,1.1615-.3265,1.2862,1.2862,0,0,1,.871.3265,1.0515,1.0515,0,0,1,.3734.8264,2.6447,2.6447,0,0,1-1.1614,2.09,3.9393,3.9393,0,0,1-2.4888.9194A3.2121,3.2121,0,0,1,53.84,52.2429a6.7086,6.7086,0,0,1-.9955-3.8424,17.11,17.11,0,0,1,.2488-2.8567,34.8879,34.8879,0,0,1,.9126-3.7545q.4141-1.4691.5393-1.8773a2.3745,2.3745,0,0,0,.1244-.6529q0-.9795-1.2444-.9794A1.4461,1.4461,0,0,0,52.5128,38.6061Z"/><path class="cls-1" d="M75.2435,34.3619a4.3439,4.3439,0,0,1,.83-.0817H76.82a3.6993,3.6993,0,0,1,1.95.4783,1.3912,1.3912,0,0,1,.7882,1.195,1.4425,1.4425,0,0,1-.9955,1.2753c-.166.0536-.3189.1059-.4563.1594a2.6578,2.6578,0,0,1-.6637.12q-.4569.04-1.2029.079t-2.157.04H73.17a8.66,8.66,0,0,0-1.41.1632q-.665,1.5514-1.3273,3.51-.6651,1.9588-1.2029,3.877-.5406,1.9185-.8711,3.6319a15.2666,15.2666,0,0,0-.3319,2.7751q0,2.2038,1.4933,2.2038a3.3234,3.3234,0,0,0,1.41-.4082c.3863-.1632.6222-.2575.7052-.2857a1.2966,1.2966,0,0,1,.3733-.0407,1.0719,1.0719,0,0,1,.83.3673,1.1491,1.1491,0,0,1,.3318.7754A2.1571,2.1571,0,0,1,71.8836,55.95a5.5973,5.5973,0,0,1-2.945.7753A3.5711,3.5711,0,0,1,66.035,55.42a5.2034,5.2034,0,0,1-1.0785-3.4279,19.2622,19.2622,0,0,1,.2489-2.8567q.2489-1.6317.6637-3.4688t.9955-3.8362q.5795-1.9991,1.3274-3.9586a1.579,1.579,0,0,1-.4978.0817h-.3319q-4.8123,0-4.8117-2.0736a1.309,1.309,0,0,1,.4564-1.0369,1.6415,1.6415,0,0,1,1.12-.3991c.11,0,.3033.014.5807.0407s.5522.0689.83.1225a12.8735,12.8735,0,0,0,2.4888.2448H68.69a2.0546,2.0546,0,0,0,.7466-.1632q.58-1.3047,1.7422-4.2035,1.1608-2.896,2.9866-7.4681a8.7442,8.7442,0,0,1,1.2029-2.0813,1.7428,1.7428,0,0,1,1.3688-.6122,1.5483,1.5483,0,0,1,1.1615.5306,1.893,1.893,0,0,1,.4977,1.3467,5.2319,5.2319,0,0,1-.0829.9386,6.5753,6.5753,0,0,1-.3319,1.1019q-.2489.6541-.7466,1.7547-.4977,1.1021-1.41,2.8159-.4161.8169-.5393,1.1019-.1243.287-.6222,1.2652T73.9162,32.73q-.2489.5719-.3733.8979c-.083.218-.153.3812-.2074.49a4.0766,4.0766,0,0,1-.2489.408h.7466Z"/><path class="cls-1" d="M123.4414,35.1781a2.5207,2.5207,0,0,1,.7467,1.714,5.1574,5.1574,0,0,1-.9955,2.2037,3.0672,3.0672,0,0,1-2.5717,1.7141q-1.6608,0-1.6593-1.5508a1.7742,1.7742,0,0,1,.083-.5714q.0814-.2447.6635-1.4691a2.1973,2.1973,0,0,0,.249-1.1427,4.9329,4.9329,0,0,0-1.1615-3.2648,3.5571,3.5571,0,0,0-2.82-1.3875,6.3228,6.3228,0,0,0-3.443,1.3467,18.7777,18.7777,0,0,0-3.8575,3.7138,25.12,25.12,0,0,0-3.9407,6.407,16.1842,16.1842,0,0,0-1.3688,6.1623,4.88,4.88,0,0,0,1.6177,3.9178,6.7252,6.7252,0,0,0,4.5213,1.3876,12.227,12.227,0,0,0,6.305-1.8773q.7467-.49,1.2445-.8162a5.2147,5.2147,0,0,0,.954-.8163q.455-.4894,1.037-1.1426.5794-.6523,1.41-1.7141a1.8687,1.8687,0,0,1,1.4932-.8977q1.3261,0,1.3275,1.5507a4.3713,4.3713,0,0,1-1.369,2.8159,16.3705,16.3705,0,0,1-3.4427,2.8159,20.8315,20.8315,0,0,1-4.5213,2.1222,14.8334,14.8334,0,0,1-4.6872.816,9.35,9.35,0,0,1-6.72-2.2916,8.5013,8.5013,0,0,1-2.4059-6.4659,18.015,18.015,0,0,1,1.4933-6.9988,27.8335,27.8335,0,0,1,3.8162-6.5067,21.29,21.29,0,0,1,5.185-4.7887,10.3445,10.3445,0,0,1,5.6-1.8416Q122.03,28.322,123.4414,35.1781Z"/><path class="cls-1" d="M143.0193,48.074q-7.0522,8.4075-12.444,8.4068a3.9238,3.9238,0,0,1-3.1937-1.4653,5.9642,5.9642,0,0,1-1.203-3.9075,25.3035,25.3035,0,0,1,1.6592-8.7512,37.1119,37.1119,0,0,1,4.2307-8.2628,27.7417,27.7417,0,0,1,5.6831-6.1864,9.7731,9.7731,0,0,1,5.9315-2.4422,5.3177,5.3177,0,0,1,4.148,1.7509,6.6144,6.6144,0,0,1,1.5762,4.5988,7.6952,7.6952,0,0,1-.1245,1.5062q-.1245.61-.5392,2.1565.3309.9774.415,1.3428a2.9305,2.9305,0,0,1,.0827.611v.4068a1.31,1.31,0,0,1-.1242.3673c-.083.19-.1944.4616-.332.8136s-.346.8277-.6223,1.4245a33.12,33.12,0,0,0-1.7005,5.4138,23.5857,23.5857,0,0,0-.7052,5.1675,3.6788,3.6788,0,0,0,.4147,1.955,2.936,2.936,0,0,0,1.5763,1.0572q.7466.245.7467.8137a.9558.9558,0,0,1-.4977.815,2.2415,2.2415,0,0,1-1.2445.3251,3.454,3.454,0,0,1-2.862-1.3059,5.764,5.764,0,0,1-1.037-3.6728c0-.4349.0128-.8571.0415-1.2651Q142.9356,49.135,143.0193,48.074Zm2.323-9.7128a1.58,1.58,0,0,1-.5807-1.061,1.9014,1.9014,0,0,1,.083-.5306q.0814-.2848.7465-1.8363a7.9167,7.9167,0,0,0,.4977-3.1016,3.9326,3.9326,0,0,0-.6635-2.3262,2.0455,2.0455,0,0,0-1.7422-.9386q-2.0745,0-4.5628,2.2037a26.9914,26.9914,0,0,0-4.6457,5.5093,35.26,35.26,0,0,0-3.5673,7.1417,20.8647,20.8647,0,0,0-1.41,7.1826,4.3178,4.3178,0,0,0,.4565,2.1221,1.4116,1.4116,0,0,0,1.2858.8163q2.0727,0,4.8947-2.4487a40.0376,40.0376,0,0,0,6.139-7.1826q.33-.4894.788-1.2651.455-.7746.9128-1.5914.455-.815.871-1.5917A5.9491,5.9491,0,0,0,145.3423,38.3612Z"/><path class="cls-1" d="M160.1085,35.2176q.9121-1.8745,1.2445-2.608.33-.7326.5808-1.3862a18.338,18.338,0,0,0-3.4015.8569,10.9318,10.9318,0,0,0-2.6548,1.2626,2.3864,2.3864,0,0,1-1.41.4081q-1.0792,0-1.0785-1.1414a2.2984,2.2984,0,0,1,.7467-1.589,7.72,7.72,0,0,1,1.991-1.4271q.6632-.3252,1.1615-.5292a11.2153,11.2153,0,0,1,1.2443-.4081q.7466-.2028,1.9082-.4885t2.9865-.6121q2.3219-5.1343,4.0235-8.7626,1.7-3.627,3.36-6.7248a22.629,22.629,0,0,1,5.2265-7.0512,9.329,9.329,0,0,1,6.056-2.16,5.542,5.542,0,0,1,3.111.7971,2.4027,2.4027,0,0,1,1.203,2.0724,1.9127,1.9127,0,0,1-.4978,1.2931,1.5006,1.5006,0,0,1-1.1615.5714,3.2114,3.2114,0,0,1-1.5762-.653,3.4073,3.4073,0,0,0-1.8253-.653,6.5463,6.5463,0,0,0-5.3092,2.9383,24.4688,24.4688,0,0,0-1.7008,2.6935q-1.12,1.9589-2.4472,4.4891t-2.7378,5.3461q-1.4118,2.8158-2.5718,5.3461h1.41q.663,0,2.323-.1633a12.5713,12.5713,0,0,1,1.3273-.0816h1.2445a4.6326,4.6326,0,0,1,2.53.6121,1.7774,1.7774,0,0,1,.954,1.51q0,1.3887-1.991,1.3875a6.8222,6.8222,0,0,1-.83-.0407q-.3321-.04-1.9079-.449c-.2775-.0535-.5393-.0944-.788-.1224a7.3765,7.3765,0,0,0-.7883-.0408,18.95,18.95,0,0,0-2.3643.1632q-1.2873.1646-2.1985.3265-1.8258,4.1627-2.9865,6.7745-1.1627,2.6132-2.0325,4.7338-.871,2.1234-1.6592,4.2035-.79,2.0813-1.95,5.1828-1.4937,4-2.53,6.6112-1.0383,2.6112-1.7835,4.2443a21.0462,21.0462,0,0,1-1.41,2.6525,20.4387,20.4387,0,0,1-1.4105,1.9182q-2.9865,3.5083-6.4707,3.51a5.8185,5.8185,0,0,1-2.9453-.6529,1.946,1.946,0,0,1-1.12-1.7141,1.7135,1.7135,0,0,1,.5392-1.2651,1.7676,1.7676,0,0,1,1.2858-.5306,8.1424,8.1424,0,0,1,.9954.1634c.2775.0535.5393.0944.7883.1223a6.5908,6.5908,0,0,0,.705.0408,4.9087,4.9087,0,0,0,2.9038-1.0189,7.8571,7.8571,0,0,0,2.3227-2.73q.249-.5719.4978-1.019.249-.4494.5807-1.1821.3326-.7347.83-1.9155t1.2857-3.22q.7876-2.0373,1.991-5.0948,1.2016-3.0568,2.9453-7.458l2.074-4.8908Z"/><path class="cls-1" d="M175.7869,35.2176q.9117-1.8745,1.2443-2.608.3307-.7326.5807-1.3862a18.3351,18.3351,0,0,0-3.4012.8569,10.9281,10.9281,0,0,0-2.6548,1.2626,2.3873,2.3873,0,0,1-1.41.4081q-1.0793,0-1.0785-1.1414a2.2979,2.2979,0,0,1,.7464-1.589,7.72,7.72,0,0,1,1.991-1.4271q.6632-.3252,1.1615-.5292a11.2438,11.2438,0,0,1,1.2446-.4081q.7466-.2028,1.9079-.4885t2.9866-.6121q2.3217-5.1343,4.0237-8.7626,1.6992-3.627,3.36-6.7248a22.629,22.629,0,0,1,5.2265-7.0512,9.329,9.329,0,0,1,6.056-2.16,5.5407,5.5407,0,0,1,3.111.7971,2.4025,2.4025,0,0,1,1.203,2.0724,1.9131,1.9131,0,0,1-.4977,1.2931,1.5,1.5,0,0,1-1.1616.5714,3.2129,3.2129,0,0,1-1.5762-.653,3.4065,3.4065,0,0,0-1.825-.653,6.5468,6.5468,0,0,0-5.3095,2.9383,24.5618,24.5618,0,0,0-1.7008,2.6935q-1.12,1.9589-2.4472,4.4891t-2.7378,5.3461q-1.4113,2.8158-2.5717,5.3461h1.4105q.663,0,2.3227-.1633a12.5716,12.5716,0,0,1,1.3275-.0816h1.2443a4.6317,4.6317,0,0,1,2.53.6121,1.7768,1.7768,0,0,1,.954,1.51q0,1.3887-1.991,1.3875a6.8169,6.8169,0,0,1-.8295-.0407q-.3325-.04-1.908-.449c-.2774-.0535-.5392-.0944-.7882-.1224a7.368,7.368,0,0,0-.788-.0408,18.9527,18.9527,0,0,0-2.3645.1632q-1.2873.1646-2.1985.3265-1.8255,4.1627-2.9865,6.7745Q177.03,39.587,176.16,41.7076q-.8712,2.1234-1.6593,4.2035t-1.95,5.1828q-1.4932,4-2.53,6.6112t-1.7838,4.2443a21.0462,21.0462,0,0,1-1.41,2.6525,20.4363,20.4363,0,0,1-1.41,1.9182q-2.9865,3.5083-6.471,3.51a5.8181,5.8181,0,0,1-2.945-.6529,1.9458,1.9458,0,0,1-1.12-1.7141,1.7147,1.7147,0,0,1,.5392-1.2651,1.7687,1.7687,0,0,1,1.286-.5306,8.1488,8.1488,0,0,1,.9955.1634c.2775.0535.5393.0944.788.1223a6.6006,6.6006,0,0,0,.7053.0408,4.9079,4.9079,0,0,0,2.9035-1.0189,7.8567,7.8567,0,0,0,2.323-2.73q.2485-.5719.4977-1.019.2487-.4494.5808-1.1821.3321-.7347.8295-1.9155t1.286-3.22q.7872-2.0373,1.991-5.0948,1.2016-3.0568,2.945-7.458l2.074-4.8908Z"/><path class="cls-1" d="M187.566,46.0335a10.3081,10.3081,0,0,0-.249,1.02,6.734,6.734,0,0,0-.083,1.1836q0,5.7962,3.8993,5.795a8.5253,8.5253,0,0,0,3.194-.7346,14.5043,14.5043,0,0,0,3.4428-2.0405,7.5439,7.5439,0,0,1,.9954-.653,1.67,1.67,0,0,1,.7468-.1632,1.0187,1.0187,0,0,1,1.1615,1.1426,2.6471,2.6471,0,0,1-.9128,1.7549,9.7911,9.7911,0,0,1-2.3227,1.714,17.43,17.43,0,0,1-3.07,1.3059,10.3732,10.3732,0,0,1-3.1525.5306,6.5486,6.5486,0,0,1-5.3095-2.4014,9.6909,9.6909,0,0,1-1.991-6.3894,24.1489,24.1489,0,0,1,.3732-4.11,38.326,38.326,0,0,1,.9955-4.2723,37.2434,37.2434,0,0,1,1.4933-4.1512,20.0162,20.0162,0,0,1,1.95-3.5823q3.0679-4.4764,6.5538-4.4763a4.52,4.52,0,0,1,3.65,1.8695,7.06,7.06,0,0,1,1.4932,4.55,11.9559,11.9559,0,0,1-.9125,4.6332,13.1607,13.1607,0,0,1-2.4887,3.9,12.4883,12.4883,0,0,1-3.6088,2.7228,9.27,9.27,0,0,1-4.19,1.0152h-.83A2.23,2.23,0,0,1,187.566,46.0335Zm.4148-3.1831a3.043,3.043,0,0,0,.7467.204,5.9829,5.9829,0,0,0,.7465.0408,5.72,5.72,0,0,0,2.8623-.7754,8.8549,8.8549,0,0,0,2.4057-2,10.7262,10.7262,0,0,0,1.7008-2.8159,8.5157,8.5157,0,0,0,.6635-3.3056,4.6127,4.6127,0,0,0-.5393-2.3262,1.63,1.63,0,0,0-1.4517-.9386,2.681,2.681,0,0,0-1.7835.9386,13.4309,13.4309,0,0,0-1.95,2.5711,25.9448,25.9448,0,0,0-1.8665,3.7953A41.0921,41.0921,0,0,0,187.9808,42.85Z"/></g><g id="hearth1_cup" data-name="hearth1+cup"><path class="cls-2" d="M77.1652,49.1914a2.9083,2.9083,0,0,0,.754.6491,9.103,9.103,0,0,0,1.6362.7677c.56.2069,1.1322.3832,1.7139.5423s1.1726.3,1.778.4163c.1518.0294.304.0571.4612.0821l.1209.0182.1254.0152.2282.0239c.3046.0326.6118.0611.92.0892a28.7365,28.7365,0,0,0,3.7949.1141,14.8053,14.8053,0,0,0,1.9544-.209c.3277-.0544.6544-.1376.9813-.2211l.4885-.1524c.1639-.0545.3324-.1277.4983-.192l.1248-.05c.0389-.0175.074-.0359.1113-.0538l.22-.1084.11-.054.055-.0268c.0467-.0248.03-.0175.0488-.0277l.03-.0183.2427-.1491a2.6928,2.6928,0,0,0,.8488-.9074,2.9278,2.9278,0,0,0,.1422-.3209,2.6206,2.6206,0,0,0,.0821-.3574,1.817,1.817,0,0,0,.0121-.3719l-.0169-.1855c-.0106-.06-.0262-.1179-.04-.1769a2.391,2.391,0,0,0-.6755-1.1176,2.176,2.176,0,0,0-.2327-.2051l-.1223-.0978c-.039-.0293-.0706-.0479-.1061-.0727l-.1038-.0695-.0521-.0345c-.0176-.0111.0033,0-.0463-.03l-.0316-.0171-.2527-.1373a4.918,4.918,0,0,0-1.0406-.3515,7.728,7.728,0,0,0-1.0346-.1522c-.3414-.0308-.6776-.0439-1.01-.0512l-.9824-.0155c-.1654-.0028-.3111-.0075-.4748-.0149l-.4972-.0265c-.68-.0249-1.3367-.005-1.9888.007a23.8928,23.8928,0,0,1-3.8122-.13c-.3056-.0459-.606-.1047-.899-.1783a5.9853,5.9853,0,0,1-.84-.29,3.3107,3.3107,0,0,1-.7329-.4329l-.0826-.0639c-.0265-.0222-.05-.0468-.0759-.07a1.5862,1.5862,0,0,1-.142-.14l-.0613-.0676a.5949.5949,0,0,1-.0666-.0785l-.1307-.1795A2.8749,2.8749,0,0,1,78.75,43.56a1.7188,1.7188,0,0,1-.0237-.7564,2.0112,2.0112,0,0,1,.3085-.7231,3.988,3.988,0,0,1,.5525-.6428,7.5771,7.5771,0,0,1,1.4339-1.0152,14.6843,14.6843,0,0,1,1.5866-.7638s2.7747-.9916,5.4036-1.6241A6.9906,6.9906,0,0,0,93.3965,32.45a15.02,15.02,0,0,0,.1819-3.5261c-.0273-1.7716-1.2008-6.2468-1.3584-8.8958a4.1,4.1,0,0,1,.7641-3.186,3.5878,3.5878,0,0,1,3.6507-1.5155,4.9076,4.9076,0,0,1,3.5537,1.9808,16.3333,16.3333,0,0,1,1.4676,2.7326s-.12-.521-.17-.6921a7.6646,7.6646,0,0,0-2.4318-3.9288,4.5813,4.5813,0,0,0-7.441,3.26c-.2062,2.47,1.2129,7.124,1.4434,8.6872.164,1.1118.4373,4.7553-.23,6.2289A7.0228,7.0228,0,0,1,89.9883,36.77a44.9718,44.9718,0,0,1-6.125,1.8257c-.4682.1247-1.0992.2542-1.504.37a12.7111,12.7111,0,0,0-1.7387.6276A8.3875,8.3875,0,0,0,79.0014,40.71a4.8756,4.8756,0,0,0-.7059.8025,3.03,3.03,0,0,0-.4694,1.0757,2.7867,2.7867,0,0,0,.0209,1.2327,3.9,3.9,0,0,0,.4687,1.0655l.1573.2242a1.32,1.32,0,0,0,.09.1129l.101.1177a2.4816,2.4816,0,0,0,.2048.2088c.0343.0324.0681.0661.1037.0973l.1088.0881a4.2918,4.2918,0,0,0,.9287.5688,6.45,6.45,0,0,0,.985.3485,10.1425,10.1425,0,0,0,.9976.2031,24.6693,24.6693,0,0,0,3.964.1588c.6527-.0091,1.3036-.0245,1.9324.0023l.4832.0276c.1631.0086.3447.0156.5068.0189l.982.02a9.9215,9.9215,0,0,1,1.8631.173,3.9576,3.9576,0,0,1,.8287.2727,2.8968,2.8968,0,0,1,.6883.4758,1.3253,1.3253,0,0,1,.3869.604.78.78,0,0,1-.0769.5982,1.6908,1.6908,0,0,1-.52.5455l-.1782.1093-.0223.014c.0008,0-.0328.019-.004.0042l-.0549.0273-.11.0547-.22.1092c-.0363.0177-.0739.0373-.1091.0535l-.102.04c-.1379.0519-.2675.1108-.4108.1589l-.4367.1391c-.2969.0766-.5935.1542-.8974.2064a13.927,13.927,0,0,1-1.8358.223,27.9032,27.9032,0,0,1-3.68-.0573c-.3038-.0231-.6062-.0466-.9081-.0745l-.2258-.02-.1011-.0106-.1046-.0143c-.1428-.02-.2889-.0447-.4345-.0707-.5828-.1056-1.1617-.2312-1.7288-.37-.5668-.1407-1.1229-.2976-1.6592-.4812a8.3249,8.3249,0,0,1-1.5094-.6614,2.1942,2.1942,0,0,1-.5627-.45.5341.5341,0,0,1-.1117-.2106.2649.2649,0,0,1,.0265-.1759.8519.8519,0,0,1,.1736-.2349,1.6716,1.6716,0,0,1,.128-.1171c.0212-.02.0474-.037.0711-.056l.036-.0277.0148-.0115.0032-.002c.0571-.0342.12-.076.1718-.104a1.336,1.336,0,0,0,.1251-.0531l.1569-.0466c.0538-.0123.11-.0192.1651-.03a2.7982,2.7982,0,0,1,.7015.0075,5.6254,5.6254,0,0,1,.716.1529,11.413,11.413,0,0,1,1.3854.5083c.8987.3879,1.7424.8328,2.5653,1.2242.4122.1955.817.3832,1.2272.5387a5.8385,5.8385,0,0,0,.623.2013,5.2322,5.2322,0,0,0,.6237.1051,10.83,10.83,0,0,0,1.1748.0783,6.9469,6.9469,0,0,0,1.0983-.0667,3.26,3.26,0,0,0,.9947-.2937,1.4954,1.4954,0,0,0,.4117-.3071,1.06,1.06,0,0,0,.2479-.4514,1.0087,1.0087,0,0,0,.0355-.2525.7443.7443,0,0,0-.0394-.25.8565.8565,0,0,0-.2605-.3756,1.3265,1.3265,0,0,0-.3394-.2078,2.1765,2.1765,0,0,0-.3391-.1172,3.35,3.35,0,0,0-1.1388-.08,1.7607,1.7607,0,0,0-.6816.1848.4364.4364,0,0,0-.1787.1608l.0359-.0441c.0145-.0149.035-.03.0581-.05a.8739.8739,0,0,1,.091-.0529,1.72,1.72,0,0,1,.6789-.1391,3.2635,3.2635,0,0,1,1.103.1474,2.0734,2.0734,0,0,1,.313.13,1.2323,1.2323,0,0,1,.2925.2027.6747.6747,0,0,1,.1921.303.5257.5257,0,0,1,.02.184.445.445,0,0,1-.0112.0917.37.37,0,0,1-.0084.0462l-.0172.0547a.9759.9759,0,0,1-.5686.5818,2.9823,2.9823,0,0,1-.9255.2194,8.933,8.933,0,0,1-2.1879-.1113,4.9294,4.9294,0,0,1-.5733-.1218,5.45,5.45,0,0,1-.57-.2111c-.384-.1649-.7737-.3654-1.1728-.5756-.7992-.4215-1.635-.8924-2.5471-1.3247a12.0089,12.0089,0,0,0-1.4423-.5834,6.24,6.24,0,0,0-.7955-.1975,3.4293,3.4293,0,0,0-.869-.0368c-.076.0113-.1519.019-.2283.0341l-.23.06c-.083.0316-.1664.067-.2482.1039-.0681.0355-.12.0692-.1815.1039a.46.46,0,0,0-.0436.0273l-.0233.0175-.0469.0338c-.0313.0234-.0629.0439-.0937.0705a2.4066,2.4066,0,0,0-.1843.1609,1.6149,1.6149,0,0,0-.3342.4446,1.105,1.105,0,0,0-.1025.6771A1.33,1.33,0,0,0,77.1652,49.1914Z"/><path class="cls-3" d="M100.4868,51.4359a2.1041,2.1041,0,0,0-.13-.21c-.0421-.0676-.1012-.1348-.1523-.2006-.028-.0365-.05-.0589-.0727-.0846l-.0683-.0757a2.1923,2.1923,0,0,0-.3824-.3238,2.4965,2.4965,0,0,0-.4126-.226,3.161,3.161,0,0,0-.8374-.2338,3.3854,3.3854,0,0,0-2.577.6341,2.3043,2.3043,0,0,0-.335.3351,1.5264,1.5264,0,0,0-.1158.1568l-.0476.0711-.0425.0757c-.0145.0268-.03.0549-.0423.0793a6.3993,6.3993,0,0,0-.2175-.933,6.4149,6.4149,0,0,1,.18,1.0109l-.0138.0306-.0235.0521-.011.0263a.52.52,0,0,0,.0807.5124c.0009.2005-.0064.4009-.0233.6a8.2049,8.2049,0,0,1-.5016,2.1782,11.13,11.13,0,0,1-.9987,2.0074q-.2977.4767-.6371.9263-.1691.2249-.3484.4409c-.1164.1395-.2388.2808-.36.4076a9.1726,9.1726,0,0,1-2.7111,1.5829,9.32,9.32,0,0,1-1.5224.4216,10.9121,10.9121,0,0,1-1.5693.18c-.1315.0029-.2562.0109-.3923.0106l-.4017-.0022c-.2664-.0074-.5318-.0179-.7966-.0382a13.5888,13.5888,0,0,1-1.5712-.2043,11.3645,11.3645,0,0,1-1.517-.3954,9.8527,9.8527,0,0,1-1.4254-.6042,8.9537,8.9537,0,0,1-1.29-.8183c-.2022-.1537-.3949-.3177-.5827-.4862-.1911-.1773-.3485-.3321-.54-.5388l-.1248-.1378-.1282-.1452q-.1269-.1464-.25-.295-.2454-.2982-.4718-.6075a10.7079,10.7079,0,0,1-.81-1.2782,7.1436,7.1436,0,0,1-.5609-1.3463,4.414,4.414,0,0,1-.1888-1.3558,3.2126,3.2126,0,0,1,.29-1.2564,3.5038,3.5038,0,0,1,.2848-.4956,1.6487,1.6487,0,0,1,1.6749-.09c-.4818-1.0547-1.3135-.9379-1.6261-1.1423-.421-.2759,0-1.23-1.2016-1.4615a2.3272,2.3272,0,0,1-.224,1.8183,5.0086,5.0086,0,0,0-.3952.7763,4.7,4.7,0,0,0-.333,1.8508,5.8218,5.8218,0,0,0,.333,1.7771,8.4844,8.4844,0,0,0,.7435,1.571,12.1334,12.1334,0,0,0,.976,1.3889q.2653.3285.5476.6393.1413.1551.2863.3071l.1462.1508.1537.1538c.1825.18.4178.3949.6317.5736.2218.182.4491.3578.6856.5212a10.116,10.116,0,0,0,1.4925.8541,10.9318,10.9318,0,0,0,1.605.5971,12.3866,12.3866,0,0,0,1.6637.355,14.5628,14.5628,0,0,0,1.6831.1432c.2807.0084.5612.0074.8409.0024l.4171-.0182c.1367-.0064.2841-.0215.4253-.0322a11.59,11.59,0,0,0,1.6693-.2768,9.9724,9.9724,0,0,0,1.5995-.53,9.6547,9.6547,0,0,0,2.78-1.8176l.0111-.01.0027-.0032c.1335-.1531.25-.3025.3679-.4576s.2291-.3112.3377-.47q.3259-.4772.6082-.9793a11.3663,11.3663,0,0,0,.9235-2.0967,8.3508,8.3508,0,0,0,.4058-2.2382c.0065-.1748.0056-.35-.0013-.5242a.5477.5477,0,0,0,.1581.0923.5533.5533,0,0,0,.706-.3122l.02-.0535.0253-.0655c.01-.0255.0155-.03.0239-.0489l.012-.0271.0227-.0372a.5771.5771,0,0,1,.055-.0845,1.2208,1.2208,0,0,1,.1732-.1949,1.9069,1.9069,0,0,1,.6822-.3843,2.7181,2.7181,0,0,1,1.0911-.1247,2.2375,2.2375,0,0,1,.6048.133,1.5628,1.5628,0,0,1,.5227.3136l.0722.0719a.8345.8345,0,0,1,.0645.0675c.0334.0416.07.0747.1034.123a1.4176,1.4176,0,0,1,.0973.14,1.2324,1.2324,0,0,1,.082.1465,1.2577,1.2577,0,0,1,.1066.3137,1.1915,1.1915,0,0,1,.0231.3378,2.399,2.399,0,0,1-.6931,1.3872,4.7783,4.7783,0,0,1-.6526.59c-.12.089-.242.1759-.37.2544-.0625.039-.13.08-.1908.1134l-.2085.113c-.5366.2783-1.1378.5129-1.7121.78a6.1486,6.1486,0,0,0-1.5986,1,1.9863,1.9863,0,0,0-.1654.1615c-.0528.0587-.1041.1054-.1568.1734a1.8485,1.8485,0,0,0-.1347.1927c-.0381.0667-.0753.1334-.1057.2014a3.32,3.32,0,0,0-.2527.8188,3.5774,3.5774,0,0,0-.0519.8009,1.95,1.95,0,0,0,.1722.74.7893.7893,0,0,0,.551.4634,1.1079,1.1079,0,0,0,.64-.0913,2.6192,2.6192,0,0,0,.2557-.13,1.5673,1.5673,0,0,0,.222-.1454,1.011,1.011,0,0,0,.2965-.3588.5506.5506,0,0,0,.0394-.3658.5025.5025,0,0,0-.1375-.2345.868.868,0,0,0-.1842-.1339.8633.8633,0,0,1,.1749.1418.4815.4815,0,0,1,.1205.2323.5154.5154,0,0,1-.0557.34.96.96,0,0,1-.2963.3224c-.0305.0245-.07.0452-.1061.0683-.0343.0209-.0763.04-.1151.06a2.5591,2.5591,0,0,1-.2515.1116.9916.9916,0,0,1-.5717.0556.5311.5311,0,0,1-.2547-.1436.7369.7369,0,0,1-.1712-.2608,1.7755,1.7755,0,0,1-.117-.6775,3.3456,3.3456,0,0,1,.09-.7467,3.0643,3.0643,0,0,1,.2723-.7392c.03-.0593.0658-.1151.1013-.17a1.5669,1.5669,0,0,1,.1212-.1544c.038-.0444.097-.0948.1445-.1422a1.729,1.729,0,0,1,.1585-.1389,5.7806,5.7806,0,0,1,1.5484-.8548c.5748-.2324,1.1758-.4282,1.7849-.7035l.216-.1032c.081-.0393.1509-.0768.2252-.1178.1471-.08.2881-.1692.4268-.2612a5.4479,5.4479,0,0,0,.773-.628,3.8839,3.8839,0,0,0,.6233-.7848,2.6125,2.6125,0,0,0,.22-.4618,2.142,2.142,0,0,0,.1222-.506,2.01,2.01,0,0,0-.144-1.025A1.9522,1.9522,0,0,0,100.4868,51.4359Z"/><path class="cls-1" d="M96.6611,62.3293c-.1521.0351-.3264.0769-.521.1257s-.411.0986-.6469.15-.4886.1155-.7624.1689c-.5445.1169-1.1614.2345-1.8342.3559-.6732.12-1.4033.2384-2.1776.3444-.388.048-.7836.1126-1.1921.1515-.4075.0425-.822.0991-1.2465.13q-.3175.029-.64.0574c-.2149.0216-.4324.03-.65.0459s-.4378.0287-.6583.0428-.4425.0191-.6653.0294-.4465.0181-.6705.0274q-.3363.0043-.6749.0089t-.6771.01l-.6783-.0119-.6778-.0088c-.2239-.0109-.4475-.0211-.6706-.0319s-.4461-.0193-.6682-.0287q-.34-.0264-.6788-.0528t-.6733-.0519l-.04-.0027-.0049-.0008-.08-.0125-.1594-.0257c-.1063-.0169-.2123-.0335-.3177-.05-.21-.0363-.4159-.0833-.6223-.124-.204-.047-.4041-.0992-.6043-.1475a8.0424,8.0424,0,0,1-2.131-.9A3.0293,3.0293,0,0,1,74.37,61.1a1.5436,1.5436,0,0,1,.2187-1.4882,1.93,1.93,0,0,1,.5212-.47l.0694-.0466q.037-.0186.073-.0374l.1427-.0736c.0966-.04.1909-.0776.2818-.11a3.7054,3.7054,0,0,1,.8958-.1616c.2162-.0042.3316-.0067.3316-.0067l-.3265-.0574a3.4167,3.4167,0,0,0-.9559.01c-.1024.0194-.2108.0443-.3243.0718-.0557.0189-.1127.0382-.1707.0574l-.0889.03c-.0286.0132-.0577.0262-.087.04a2.1608,2.1608,0,0,0-.6958.4759,2.02,2.02,0,0,0-.5055.8415,2.1212,2.1212,0,0,0-.021,1.0993,2.846,2.846,0,0,0,.5179,1.0627,4.6865,4.6865,0,0,0,.8837.8722,8.228,8.228,0,0,0,2.3354,1.1661c.2149.063.43.1338.65.1921.2205.0522.442.1109.6663.1584q.1689.0331.3383.0664l.17.0333.0851.0167.0211.0043c-.03-.0032.053.007.0483.006l.01.0013.0418.0046q.3342.0336.6717.0673t.6774.0675l.6992.0415q.3507.0189.7025.0382l.6994.0143.6993.0079q.3491-.0074.6975-.0152t.6946-.0183q.3456-.0219.6889-.043c.2288-.0158.4569-.0269.6832-.0455l.6744-.0683c.2229-.0243.4455-.0417.6651-.0713s.4372-.06.6531-.0892c.4324-.0558.8547-.1289,1.2674-.2019.4132-.0683.8142-.1558,1.2043-.2367.78-.1669,1.5094-.3535,2.1773-.5431s1.2717-.3882,1.8019-.5762c.2662-.09.5129-.1821.7392-.2712.2269-.0872.4346-.1689.62-.2483.1861-.0771.3517-.1467.4947-.21.142-.0653.2629-.1213.3606-.1665.1946-.0917.2984-.1408.2984-.1408s-.1117.0281-.3216.08Z"/></g><g id="hearth_2"><path class="cls-4" d="M101.68,15.947a11.5615,11.5615,0,0,1,3.6022-1.67,12.3569,12.3569,0,0,1,4.1419-.1552,3.3722,3.3722,0,0,1,2.9655,1.778,4.2308,4.2308,0,0,1-.9582,5.131c-1.9156,1.8976-4.706,3.8658-9.7514,5.9664-4.1982,1.7478-6.7921,2.7918-6.7921,2.7918s14.0166-4.8179,17.49-6.9444c4.56-2.7923,3.3587-5.3984,2.9109-6.563a4.6926,4.6926,0,0,0-2.5955-2.1718,11.788,11.788,0,0,0-5.3428-.6145A10.42,10.42,0,0,0,101.68,15.947Z"/></g></svg>