<svg id="Layer_1" data-name="Layer 1" xmlns="http://www.w3.org/2000/svg" viewBox="0 0 742.68 197.86"><title>sdu</title><path d="M0,172.67l23.34-22.45c8.39,8.33,18.14,14.75,30,17.14,8.28,1.67,16.57,2,24.24-2.54,12.53-7.37,14-23.54,2.75-32.71a66.64,66.64,0,0,0-14.15-8.22c-9-4.19-18.42-7.61-27.42-11.85-12.2-5.75-22.56-13.57-27-27.15C4,61,16.39,36.38,41.58,27.4,67,18.33,91,22.61,113.11,37.71a5.3,5.3,0,0,1,1.06,1c.1.11.1.31.25.78-5.31,7.57-10.73,15.32-16.52,23.57A47.43,47.43,0,0,0,73.7,52.34c-8.49-1.1-16.64,0-23.94,4.72-9.53,6.17-10.18,18.71-.72,25,6.7,4.45,14.43,7.36,21.74,10.88,9,4.31,18.32,7.92,26.87,12.92,31.27,18.29,30.19,62.21.81,81.18-22.3,14.4-45.72,13.31-69,3.1-9.61-4.21-18.23-10.66-27.58-16.26"/><path d="M148.84,195.71V26.19c.54-.33.83-.66,1.1-.66,24.61.47,49.48-1.06,73.78,1.91,39.85,4.88,63.85,32.2,69.12,70.8,3.44,25.28-2.62,48.21-18.61,68.13-13.08,16.28-31,25.19-51.17,26.95C198.6,195.45,173.92,195,148.84,195.71Zm32.51-30.15c11,0,21.81.32,32.55-.15a45.56,45.56,0,0,0,14-3.2c35.6-13.71,44.94-65.45,17-93.16-11.3-11.21-25.43-14.43-40.62-14.7-7.59-.13-15.19,0-22.87,0Z"/><path d="M320.88,25.65h32.24V64.37c0,20.84-.12,41.67,0,62.5.13,21.91,10.74,36.28,30.49,40.45,22.55,4.76,49-5.84,49.39-38.51.41-32.32.09-64.66.09-97v-6h32.54c.09,1.33.25,2.62.25,3.91,0,32,.15,64-.05,96-.11,18.44-4.53,35.63-17.12,49.79-10.86,12.23-24.94,18.58-40.87,20.89-18.15,2.64-35.86,1.18-52.45-7.35-19.23-9.88-29.53-26.29-33.22-47.1a111.34,111.34,0,0,1-1.52-18.86c-.14-31.32-.06-62.66,0-94C320.6,28.15,320.75,27.17,320.88,25.65Z"/><path d="M501.77,133.59c-2.24-3.1-4.25-5.92-6.47-9,12.23-9.24,25.45-16,39.25-21.85,26.53-11.14,54.12-17,83-16.6,4.15.06,8.3.85,12.44.78a6.06,6.06,0,0,0,4.53-2.43c6.16-10.94,15.86-15.65,27.91-16.45,26.15-1.73,46.12,10.48,63.11,28.7,6.26,6.72,11.48,14.42,17.18,21.66l-.91,1.67c-13.06,2-26.08,4.61-39.21,5.7-11.71,1-23.7,1.36-35.32,0-16.47-2-28.72-10.71-34.13-27.34a5.46,5.46,0,0,0-3.49-3.19c-15.26-2.27-30.46-1.51-46.08,1.65,12.75,5.13,16.37,16,18.54,28.13,1.29-.36,2.18-.64,3.09-.86,15.65-3.81,26.92,2.13,31.68,17.71,5.21,17,2.06,33-9.1,46.91-7.58,9.45-16.18,10.75-27.15,5.78a9.62,9.62,0,0,0-7.23.12c-8.91,4.31-15.8,3.75-23.54-2.59-13.74-11.28-19.74-36.8-12.48-53.1,5.62-12.64,17.38-18.54,31.11-15.63.78.16,1.55.34,2.37.52.5-10.91-8.56-20.29-19.6-21-10.35-.69-19.65,2.82-28.86,6.63A153.75,153.75,0,0,0,504.26,132,28.77,28.77,0,0,1,501.77,133.59Z"/><path d="M575.69,76.21c.78-17.79,9-30.74,20.51-41.89,17.19-16.64,38.5-25.65,61.08-32.15,3-.86,6.1-1.46,9.16-2.15.26-.06.58.16,1.52.45-12.87,10.59-19.49,25.35-27.75,38.89C627.64,60,608.77,70.69,585.58,74.81,582.55,75.35,579.48,75.68,575.69,76.21Z"/></svg>